<svg id="Capa_1" data-name="Capa 1" xmlns="http://www.w3.org/2000/svg" viewBox="0 0 551.3 529.01"><defs><style>.cls-1{font-size:48px;}.cls-1,.cls-2,.cls-3{fill:#1e40af;}.cls-1,.cls-3{font-family:Poppins-Bold, Poppins;font-weight:700;}.cls-3{font-size:64px;}</style></defs><text class="cls-1" transform="translate(93.15 397.7) rotate(48.26)">M</text><text class="cls-1" transform="matrix(0.81, 0.59, -0.59, 0.81, 129.61, 436.38)">A</text><text class="cls-1" transform="translate(165.86 461.55) rotate(24.72)">D</text><text class="cls-1" transform="translate(206.21 478.82) rotate(14.61)">E</text><text class="cls-1" transform="translate(239.41 486.5) rotate(7.91)"> </text><text class="cls-1" transform="translate(257.07 488.71) rotate(2.89)">I</text><text class="cls-1" transform="translate(280.13 490.03) rotate(-5.66)">N</text><text class="cls-1" transform="matrix(0.97, -0.24, 0.24, 0.97, 324.31, 484.13)"> </text><text class="cls-1" transform="translate(343.09 480.19) rotate(-22.98)">M</text><text class="cls-1" transform="matrix(0.83, -0.57, 0.57, 0.83, 391.84, 457.48)">É</text><text class="cls-1" transform="translate(419.99 437.76) rotate(-44.17)">X</text><text class="cls-1" transform="translate(449.87 406.81) rotate(-52.44)">.</text><path class="cls-2" d="M337.36,463.81a20.36,20.36,0,0,1,7.11,1.28,17.7,17.7,0,0,1,7,4.82c14-69.17,75.26-121.41,148.49-121.41a151.62,151.62,0,0,1,133.91,80.73l.66-.07c1.31-.1,2.64-.15,4-.15a58.65,58.65,0,0,1,9.77.85,45.52,45.52,0,0,1,5.48,1.3C627.41,372.47,568.4,331.5,500,331.5c-80.53,0-148,56.78-164.6,132.41A18.38,18.38,0,0,1,337.36,463.81Z" transform="translate(-224.35 -235.5)"/><path class="cls-2" d="M663.81,529.38c-1.18.89-2.39,1.75-3.65,2.54a59.08,59.08,0,0,1-13.55,6.31C629.62,603.32,570.33,651.5,500,651.5a151.37,151.37,0,0,1-121.72-61.41,45.24,45.24,0,0,1-13.93,4.84c-1.07.18-2.14.31-3.21.41A168.45,168.45,0,0,0,500,668.5c82.43,0,151.22-59.5,165.69-137.81C665.05,530.28,664.42,529.84,663.81,529.38Z" transform="translate(-224.35 -235.5)"/><path class="cls-2" d="M760,536.18a58.52,58.52,0,0,1-10.05-1.53,32.27,32.27,0,0,1-4.63-1.56C729.06,654,625.25,747.5,500,747.5c-103.86,0-193-64.32-229.63-155.21a18.33,18.33,0,0,1-8.7,10.07,22.85,22.85,0,0,1-4.88,1.93,264.6,264.6,0,0,0,505.24-68C761.3,536.25,760.61,536.23,760,536.18Z" transform="translate(-224.35 -235.5)"/><path class="cls-2" d="M246.21,480.67a30.93,30.93,0,0,1,4.75-.38c.79,0,1.56,0,2.32.11C263.3,353.06,370.13,252.5,500,252.5c101,0,188.14,60.89,226.54,147.89a19.19,19.19,0,0,1,6.5-2.54c1.2-.23,2.72-.56,4.57-1s3.74-.75,5.64-1.08A264.57,264.57,0,0,0,236.1,482.16C239.48,481.68,242.86,481.18,246.21,480.67Z" transform="translate(-224.35 -235.5)"/><path class="cls-2" d="M255.45,585.93a2.47,2.47,0,0,1-1.34,2.33,6.37,6.37,0,0,1-2.75.77q-11.52.42-23,.48a5.75,5.75,0,0,1-2.69-.63,2.22,2.22,0,0,1-1.28-2.17,2.74,2.74,0,0,1,.64-1.8,11.12,11.12,0,0,1,1.41-1.42,17.93,17.93,0,0,0,5-5.18,26.6,26.6,0,0,0,3.06-6.65,42.11,42.11,0,0,0,1.53-7.34,64.35,64.35,0,0,0,.44-7.32q0-17.25,0-34.5,0-3.39-.26-6.09a14.33,14.33,0,0,0-1.21-4.73,10.26,10.26,0,0,0-2.8-3.55,15.23,15.23,0,0,0-5-2.53,4.93,4.93,0,0,1-1.71-1.07,2.62,2.62,0,0,1-.7-2,2.52,2.52,0,0,1,1.14-2.19,5.6,5.6,0,0,1,2.42-1q10.16-1.36,20.33-2.91a9.2,9.2,0,0,1,4.58.15,7.43,7.43,0,0,1,3.07,3.06q13.94,22.65,28,46.56Q297.61,519,311,490a12,12,0,0,1,3-4.45,11.71,11.71,0,0,1,4.59-1.8q8.88-1.86,17.77-3.83a4.36,4.36,0,0,1,2.5.18,1.94,1.94,0,0,1,1.22,2.05,4,4,0,0,1-.75,2.48,9.45,9.45,0,0,1-1.79,1.84,24.72,24.72,0,0,0-5,4.62,17.9,17.9,0,0,0-2.79,4.9,21.06,21.06,0,0,0-1.19,5.64c-.16,2.05-.24,4.31-.23,6.8q.1,23.57.2,47.13,0,3.74.29,6.72a16.68,16.68,0,0,0,1.24,5.2,11.18,11.18,0,0,0,2.83,3.91,14.78,14.78,0,0,0,5.07,2.79,5,5,0,0,1,1.79,1.25,3,3,0,0,1,.78,2.13,2.93,2.93,0,0,1-1.2,2.5,5.46,5.46,0,0,1-2.49,1.08q-18.69,2.7-37.36,4.58a4.2,4.2,0,0,1-2.43-.46,2.16,2.16,0,0,1-1.16-2.12,3.62,3.62,0,0,1,.69-2.23,6.59,6.59,0,0,1,1.72-1.65,20.16,20.16,0,0,0,5-4,15.18,15.18,0,0,0,2.8-4.55,19.28,19.28,0,0,0,1.19-5.44q.24-3,.23-6.67l-.15-36.69a6,6,0,0,0-.33-1.85,1.08,1.08,0,0,0-1.34-.83,2.27,2.27,0,0,0-1.21.7,3.91,3.91,0,0,0-.83,1.19q-11.73,24-23.48,46.78a5.15,5.15,0,0,1-4.34,3,3.66,3.66,0,0,1-3.84-1.85q-12.6-20.89-25.13-40.88A2.93,2.93,0,0,0,246,527a1.71,1.71,0,0,0-1.27-.45,1.46,1.46,0,0,0-1.28,1.32,10.09,10.09,0,0,0-.25,2q0,13.33,0,26.67a64.55,64.55,0,0,0,.46,7.34,40.22,40.22,0,0,0,1.55,7.28,25.25,25.25,0,0,0,3.08,6.51,17,17,0,0,0,5.06,5,11,11,0,0,1,1.41,1.4A2.85,2.85,0,0,1,255.45,585.93Z" transform="translate(-224.35 -235.5)"/><path class="cls-2" d="M383.15,563.87a29.8,29.8,0,0,1-9.44,10.31,30.57,30.57,0,0,1-12,5,23.35,23.35,0,0,1-8,0A15.33,15.33,0,0,1,342,569.85a23.92,23.92,0,0,1-1.84-9.79,22,22,0,0,1,2.26-10.25,28.51,28.51,0,0,1,6-7.91,37.61,37.61,0,0,1,8.36-5.88,73.61,73.61,0,0,1,9.4-4.13q4.72-1.68,9.08-2.81t7.43-1.78c0-.89,0-1.78,0-2.68,0-3.77-.09-7.13-.23-10.08a39,39,0,0,0-1-7.53,8.64,8.64,0,0,0-2.33-4.47,4.71,4.71,0,0,0-4.36-.74,10,10,0,0,0-5.56,3.07,16.56,16.56,0,0,0-3.06,5.32,46.6,46.6,0,0,0-1.76,6.35,44,44,0,0,1-1.84,6.35,17.17,17.17,0,0,1-3.05,5.25,9.29,9.29,0,0,1-5.49,2.91,8.74,8.74,0,0,1-6.67-1.21q-3-1.9-3-6.86a17,17,0,0,1,2.9-9.75,33.94,33.94,0,0,1,7.2-7.77,45.34,45.34,0,0,1,9.08-5.63,43.64,43.64,0,0,1,8.64-3.09,75.45,75.45,0,0,1,14.67-2.07,18.28,18.28,0,0,1,9.69,2.11,12.7,12.7,0,0,1,5.42,7,40.19,40.19,0,0,1,1.71,12.78q0,13.09.08,26.18,0,5.26.29,8.52a13.53,13.53,0,0,0,1.17,5,4.92,4.92,0,0,0,2.44,2.43,9.67,9.67,0,0,0,4.1.57q1.79-.07,1.8,2a5.59,5.59,0,0,1-1.85,4.09,18.86,18.86,0,0,1-4.34,3.16,30.45,30.45,0,0,1-4.86,2.11,32.12,32.12,0,0,1-3.52,1c-5,1-8.75.94-11.14-.15S383.85,567.91,383.15,563.87ZM362,553.77q0,6.78,3,9.19a7.83,7.83,0,0,0,6.67,1.74,13.92,13.92,0,0,0,7.6-4.47,12.34,12.34,0,0,0,3.49-8.8q0-8.79-.07-17.57a38.53,38.53,0,0,0-8.32,2.08,22.23,22.23,0,0,0-6.58,3.75,15.86,15.86,0,0,0-4.27,5.77A20.5,20.5,0,0,0,362,553.77Z" transform="translate(-224.35 -235.5)"/><path class="cls-2" d="M459.6,554.15a3.43,3.43,0,0,1-1.15,2.71,5.47,5.47,0,0,1-2.44,1.31q-18.76,4.2-37.51,8.18a3.91,3.91,0,0,1-2.44-.24,2.16,2.16,0,0,1-1.16-2.18,4,4,0,0,1,.76-2.5,17,17,0,0,1,1.79-2,26.88,26.88,0,0,0,5-4.86,19,19,0,0,0,2.75-5,22.49,22.49,0,0,0,1.2-5.81q.24-3.16.23-7.41,0-9.64-.05-19.27a57.14,57.14,0,0,0-.73-8.95,7.78,7.78,0,0,0-6.05-7.23,8.91,8.91,0,0,1-2-.75,2.33,2.33,0,0,1-1.8-2.3,3.74,3.74,0,0,1,2-3.35l4.87-3.2q3.08-2,6.35-4.09c2.18-1.38,4.27-2.65,6.28-3.79a20.36,20.36,0,0,1,4.81-2.15,6.61,6.61,0,0,1,4.05,0,4.23,4.23,0,0,1,2.19,2.23,11.86,11.86,0,0,1,.9,3.75c.14,1.45.2,3,.21,4.61a32,32,0,0,1,10.44-12.65,39.67,39.67,0,0,1,13.3-6,19.39,19.39,0,0,1,6.43-.43,12.45,12.45,0,0,1,5.72,2,12.18,12.18,0,0,1,4.05,4.52,15.1,15.1,0,0,1,1.55,7.17,16.59,16.59,0,0,1-2.63,9.35,11.54,11.54,0,0,1-7.26,5q-4.37,1-6.48-1.26a21.45,21.45,0,0,1-3.61-5.3,43,43,0,0,0-3.09-5.4q-1.61-2.38-5.07-1.57a12.11,12.11,0,0,0-6.87,4.3,24.25,24.25,0,0,0-4,7.6,44.24,44.24,0,0,0-1.91,9,80.5,80.5,0,0,0-.5,8.66l0,14.66q0,4.11.27,7.19a18,18,0,0,0,1.23,5.37,10.46,10.46,0,0,0,2.76,3.89,15,15,0,0,0,5,2.69,9.63,9.63,0,0,1,1.79,1.2A2.8,2.8,0,0,1,459.6,554.15Z" transform="translate(-224.35 -235.5)"/><path class="cls-2" d="M531.79,534.52a5.86,5.86,0,0,1-1.73,4.13,17.57,17.57,0,0,1-4.17,3.19,35.08,35.08,0,0,1-4.88,2.29,30.67,30.67,0,0,1-3.85,1.23,35.75,35.75,0,0,1-7.37.94,9.41,9.41,0,0,1-5.32-1.43,8.63,8.63,0,0,1-3.27-4.64,27.36,27.36,0,0,1-1.09-8.59V500.17a59.83,59.83,0,0,0-.71-9.06,8.8,8.8,0,0,0-4-6.61,9,9,0,0,0-2-.78,9.08,9.08,0,0,1-2-.78,2.52,2.52,0,0,1-1.67-2.53,3.42,3.42,0,0,1,1.93-3.2q8.92-5.49,17.87-10.9a27.3,27.3,0,0,1,2.57-1.33,13.15,13.15,0,0,1,2.7-.89,5.74,5.74,0,0,1,5.34,1.09q2,1.8,2,5.79,0,22.39,0,44.79v4.37a39.48,39.48,0,0,0,.31,5,15.89,15.89,0,0,0,1.15,4.35,4.52,4.52,0,0,0,4.49,2.94,16.67,16.67,0,0,1,2,0A2,2,0,0,1,531.79,534.52Zm-9.54-94.41a20.62,20.62,0,0,1-3.93,12.26,15.88,15.88,0,0,1-9.59,6.74,9.9,9.9,0,0,1-9.58-2.57q-3.93-3.8-3.93-10.55a21,21,0,0,1,3.92-12.33,15.79,15.79,0,0,1,9.6-6.79,9.88,9.88,0,0,1,9.59,2.63Q522.26,433.37,522.25,440.11Z" transform="translate(-224.35 -235.5)"/><path class="cls-2" d="M595.73,525.28c-.44,2.48-1.72,3.9-3.86,4.26-17.45,3-34.89,6.42-52.34,10.08a6.57,6.57,0,0,1-4.23-.48c-1.37-.63-2-2-2-4a8.48,8.48,0,0,1,.58-3,24.54,24.54,0,0,1,1.35-2.89c11.53-20.24,23.09-40.27,34.66-59.91a12.33,12.33,0,0,0,.9-1.82,5.44,5.44,0,0,0,.39-2c0-1.11-.38-1.78-1.15-2a4.85,4.85,0,0,0-2.18-.16c-3.78.64-7,1.31-9.65,2a18,18,0,0,0-12.16,9.6,60.54,60.54,0,0,0-4.45,11.27,8.28,8.28,0,0,1-1.1,2.13,2.82,2.82,0,0,1-1.74,1.19A1.63,1.63,0,0,1,537,489a2.7,2.7,0,0,1-.64-1.93,38.05,38.05,0,0,1,.39-4.52q.39-3,.91-6.31t1.1-6.41c.39-2.07.67-3.73.84-5a5.65,5.65,0,0,1,1.29-2.93,4.32,4.32,0,0,1,2.45-1.47c16.8-3.24,33.61-6.09,50.41-8.4a5.91,5.91,0,0,1,3.4.52c1.07.51,1.6,1.62,1.59,3.32a11.49,11.49,0,0,1-.52,3,14,14,0,0,1-1.17,2.94c-11.53,19.07-23.06,38.66-34.56,58.57a11.55,11.55,0,0,0-1.1,2.26,7.11,7.11,0,0,0-.45,2.45c0,1.12.33,1.81,1,2.09a4.12,4.12,0,0,0,2.31.16q6-1.17,10.45-2a22.23,22.23,0,0,0,7.83-2.93,19.41,19.41,0,0,0,6-6.25,52.41,52.41,0,0,0,5.11-11.91,7.53,7.53,0,0,1,1.09-2.06,2.62,2.62,0,0,1,1.74-1.09,1.74,1.74,0,0,1,1.67.56,2.88,2.88,0,0,1,.63,1.94,36.6,36.6,0,0,1-.4,4.41q-.39,2.92-.92,6.16c-.35,2.16-.7,4.24-1,6.26S595.9,524.05,595.73,525.28Z" transform="translate(-224.35 -235.5)"/><path class="cls-2" d="M664.34,504.65a35.59,35.59,0,0,1-12.67,13.71,40.53,40.53,0,0,1-16.62,6.11,32.81,32.81,0,0,1-14-1.05A26.78,26.78,0,0,1,610,516.81a31.42,31.42,0,0,1-7.27-11.64,45.45,45.45,0,0,1-2.58-16,52,52,0,0,1,2.76-16.89,43.81,43.81,0,0,1,7.49-13.68,38.17,38.17,0,0,1,11.27-9.34,34.25,34.25,0,0,1,14.06-4.1,40.5,40.5,0,0,1,9.87.51,26.94,26.94,0,0,1,9.41,3.45,21.63,21.63,0,0,1,7.07,6.89,19,19,0,0,1,2.77,10.66,12.76,12.76,0,0,1-2.53,7.92,8.77,8.77,0,0,1-6.73,3.59,7.65,7.65,0,0,1-6.53-2.39,11.63,11.63,0,0,1-2.79-7q-.36-3.63-.41-7.07a23.13,23.13,0,0,0-.81-6,7.47,7.47,0,0,0-2.8-4.07c-1.37-1-3.55-1.37-6.54-1.14a10.69,10.69,0,0,0-6.81,3.08,22.34,22.34,0,0,0-4.65,6.74,34.92,34.92,0,0,0-2.59,8.44,48.82,48.82,0,0,0-.8,8.34,45.32,45.32,0,0,0,1.61,12.51,29.21,29.21,0,0,0,4.9,10,20.49,20.49,0,0,0,8.05,6.31,21.47,21.47,0,0,0,10.95,1.48,27.25,27.25,0,0,0,7.63-1.87,45.3,45.3,0,0,0,7.25-3.78,5.08,5.08,0,0,1,1.92-.57,1.9,1.9,0,0,1,1.22.34,1.44,1.44,0,0,1,.57,1.26A3.91,3.91,0,0,1,664.34,504.65Z" transform="translate(-224.35 -235.5)"/><path class="cls-2" d="M709.1,509a24.08,24.08,0,0,1-9.49,8.18,30.52,30.52,0,0,1-12,3.23,25.8,25.8,0,0,1-8-.84A17.38,17.38,0,0,1,672.7,516a17.62,17.62,0,0,1-4.78-6.64,24.7,24.7,0,0,1-1.74-9.9,20.18,20.18,0,0,1,2.34-9.94,22.91,22.91,0,0,1,6.05-7A29,29,0,0,1,683,478a54.74,54.74,0,0,1,9.41-2.31,77.94,77.94,0,0,1,9.07-.85c2.89-.1,5.36-.11,7.4-.05,0-.84,0-1.67,0-2.5,0-3.52,0-6.67-.15-9.46a38.15,38.15,0,0,0-.93-7.27,10.74,10.74,0,0,0-2.28-4.77,5.91,5.91,0,0,0-4.33-1.79,7.73,7.73,0,0,0-5.56,1.57,11.32,11.32,0,0,0-3.08,4.37,37.26,37.26,0,0,0-1.82,5.7,34,34,0,0,1-1.87,5.73,13.21,13.21,0,0,1-3.09,4.48,8,8,0,0,1-5.5,1.86,9.93,9.93,0,0,1-6.65-2.26q-2.93-2.34-2.91-7.23a14.51,14.51,0,0,1,3-9.12,24.19,24.19,0,0,1,7.26-6.21,31.77,31.77,0,0,1,9.08-3.45,34.79,34.79,0,0,1,8.63-.87,68,68,0,0,1,14.59,2,24.49,24.49,0,0,1,9.61,4.71,17.65,17.65,0,0,1,5.32,8,37.71,37.71,0,0,1,1.62,12q0,11.82-.07,23.64c0,3.17.06,5.76.23,7.75a13.44,13.44,0,0,0,1.13,4.8,6.57,6.57,0,0,0,2.41,2.73,12.7,12.7,0,0,0,4.08,1.44,2,2,0,0,1,1.78,2.23,3.69,3.69,0,0,1-1.86,3.22,15,15,0,0,1-4.34,1.89,29.21,29.21,0,0,1-4.85.91,34.46,34.46,0,0,1-3.51.23c-5-.06-8.72-.74-11.1-2.16S709.76,512.88,709.1,509Zm-21-13q0,6.53,2.9,9.26a9.1,9.1,0,0,0,6.63,2.63,12.27,12.27,0,0,0,7.62-3,9.36,9.36,0,0,0,3.54-7.59l.06-16.4a34.83,34.83,0,0,0-8.3.23,17.73,17.73,0,0,0-6.59,2.31,11.69,11.69,0,0,0-4.3,4.79A17.35,17.35,0,0,0,688.07,496Z" transform="translate(-224.35 -235.5)"/><path class="cls-2" d="M775.65,515.21a3.18,3.18,0,0,1-1.72,2.83,12.51,12.51,0,0,1-4.13,1.53,33.41,33.41,0,0,1-4.84.63,35.51,35.51,0,0,1-3.82,0,44.12,44.12,0,0,1-7.32-1.09,13.29,13.29,0,0,1-5.28-2.56,10.63,10.63,0,0,1-3.24-4.77,23.25,23.25,0,0,1-1.07-7.81q.07-33.71.16-67.43a48.72,48.72,0,0,0-.68-7.92,12.21,12.21,0,0,0-3.73-7.07,8.79,8.79,0,0,0-2.09-1.53,13.38,13.38,0,0,1-2.09-1.4c-.42-.42-.82-.84-1.2-1.25a2.25,2.25,0,0,1-.57-1.58,2.16,2.16,0,0,1,2-2.26c1.27-.25,2.9-.6,4.89-1s4.06-.82,6.21-1.17,4.22-.62,6.2-.79a17,17,0,0,1,4.87.16,10.82,10.82,0,0,1,5.56,3.06,8.19,8.19,0,0,1,2.26,6L766,496.46v3.77a29.06,29.06,0,0,0,.31,4.31,15.81,15.81,0,0,0,1.14,4,5.83,5.83,0,0,0,2.48,2.84,8.79,8.79,0,0,0,2,.91c.64.2,1.29.42,2,.66A2.24,2.24,0,0,1,775.65,515.21Z" transform="translate(-224.35 -235.5)"/><text class="cls-3" transform="translate(122.79 156.62) rotate(-47.38)">N</text><text class="cls-3" transform="matrix(0.86, -0.5, 0.5, 0.86, 162.17, 115.83)">A</text><text class="cls-3" transform="translate(208.02 90.09) rotate(-13.97)">V</text><text class="cls-3" transform="translate(258.82 78.25) rotate(2.04)">A</text><text class="cls-3" transform="translate(314.22 82.03) rotate(17.61)">J</text><text class="cls-3" transform="translate(356.53 95.81) rotate(32.92)">A</text><text class="cls-3" transform="translate(401.81 127.05) rotate(48.58)">S</text></svg>